<?xml version="1.0" encoding="utf-8"?>
<!-- Generator: Adobe Illustrator 26.1.0, SVG Export Plug-In . SVG Version: 6.00 Build 0)  -->
<svg version="1.1" xmlns="http://www.w3.org/2000/svg" xmlns:xlink="http://www.w3.org/1999/xlink" x="0px" y="0px"
	 viewBox="0 0 2000 2000" style="enable-background:new 0 0 2000 2000;" xml:space="preserve">
<g id="bg">
</g>
<g id="Layer_1">
	<g>
		<g id="triangle-group_00000005266811998075326700000007792558777144149938_">
			<polygon points="387.9,1076.8 351,1140.7 602.1,1140.7 565.2,1076.8 			"/>
			<polygon points="476.5,923.2 439.6,859.3 314.1,1076.8 387.9,1076.8 			"/>
			<polygon points="565.2,1076.8 639,1076.8 513.4,859.3 476.5,923.2 			"/>
		</g>
		<circle id="circle-shape_00000022537505436808196690000006034273229792342661_" cx="476.5" cy="1025.9" r="39.9"/>
		<g>
			<path d="M761.7,902.6c32.7,0,53.7,18.2,55.6,47.8h-23.4c-1.2-17-13.3-27-32.4-27c-21.5,0-35.5,10.9-35.5,27.7
				c0,13.7,7.8,22,23.9,25.8l28.2,6.6c27.9,6.4,42.1,21.5,42.1,45.7c0,30.8-23.9,50.4-60.4,50.4c-34.8,0-58-18.2-59.4-47.6h23.7
				c0.5,16.3,14.2,26.8,35.7,26.8c22.7,0,37.2-10.7,37.2-27.7c0-13.5-7.3-22-23.7-25.8l-28.2-6.4c-27.9-6.4-42.4-22.5-42.4-47.1
				C702.8,922.5,726.4,902.6,761.7,902.6z"/>
			<path d="M833.7,1076.6v-174h22.3v76.2c7.3-12.5,21.3-21.1,39.3-21.1c29.6,0,43.8,18.7,43.8,48.3v70.8h-22.3V1011
				c0-23.4-11.1-32.9-27.7-32.9c-21.5,0-33.1,15.6-33.1,35.5v63H833.7z"/>
			<path d="M952.3,1044.6c0-21.3,15.9-34.6,43.1-36.7l36.5-2.8v-3.3c0-19.4-11.6-26.3-27.2-26.3c-18.7,0-29.4,8.3-29.4,22.3h-19.4
				c0-24.2,19.9-40,49.7-40c28.6,0,48.1,15.2,48.1,46.4v72.7h-18.9l-2.4-18.7c-5.9,13.3-21.8,21.5-40.5,21.5
				C967,1079.7,952.3,1065.7,952.3,1044.6z M1032.1,1026.9v-6.2l-29.6,2.4c-19.6,1.9-27.7,9.5-27.7,20.8c0,12.3,9,18.5,23.4,18.5
				C1019.3,1062.4,1032.1,1048.7,1032.1,1026.9z"/>
			<path d="M1138.8,980.5h-9.9c-21.1,0-34.1,12.8-34.1,35v61.3h-22.3V961.3h20.8l1.4,17.5c4.7-12.1,16.3-20.1,32.2-20.1
				c4,0,7.3,0.5,11.8,1.4V980.5z"/>
			<path d="M1136,1019.3c0-35.5,20.6-61.6,54.9-61.6c17.8,0,32.7,7.8,40.5,22v-77.2h22v174.2h-19.9l-1.9-21.1
				c-7.6,15.9-23.2,23.9-41.7,23.9C1156.4,1079.7,1136,1054.6,1136,1019.3z M1231.2,1018.6c0-23.7-14-40.7-36.7-40.7
				c-22.7,0-36,17-36,40.7c0,23.9,13.3,41,36,41C1217.2,1059.5,1231.2,1042.7,1231.2,1018.6z"/>
			<path d="M1266.2,1019.1c0-36.2,23-61.3,56.6-61.3c32.9,0,54.5,22.7,54.5,57.1v8.3l-89.5,0.2c1.7,24.4,14.4,37.9,36.5,37.9
				c17.3,0,28.6-7.1,32.4-20.4h20.8c-5.7,24.9-25.1,38.8-53.7,38.8C1289.6,1079.7,1266.2,1055,1266.2,1019.1z M1288.2,1008.4h66.8
				c0-19.2-12.5-32-32.2-32C1303.4,976.4,1291.1,988,1288.2,1008.4z"/>
			<path d="M1492.3,961.1v115.8h-19.9l-2.4-17.5c-6.6,12.1-22,20.4-39.1,20.4c-27,0-42.1-18.2-42.1-46.6v-72h22.3v64.6
				c0,24.9,10.7,34.3,27.7,34.3c20.4,0,31.5-13,31.5-37.9v-61.1H1492.3z"/>
			<path d="M1512.6,1076.8V961.1h19.9l2.1,15.2c5.9-10.9,18.2-18.5,34.6-18.5c18,0,30.8,9,36.7,23.4c5.4-14.4,19.4-23.4,37.4-23.4
				c26.5,0,42.6,16.6,42.6,43.3v75.8h-21.8v-70.3c0-18.2-10.2-28.6-25.8-28.6c-16.8,0-27.9,11.8-27.9,30.3v68.7h-22v-70.6
				c0-18.2-9.9-28.2-25.6-28.2c-16.8,0-27.9,11.6-27.9,30.1v68.7H1512.6z"/>
		</g>
	</g>
</g>
</svg>
